
<svg xmlns="http://www.w3.org/2000/svg" version="1.1" xmlns:xlink="http://www.w3.org/1999/xlink" xmlns:svgjs="http://svgjs.dev/svgjs" width="2000" height="348" viewBox="0 0 2000 348"><g transform="matrix(1,0,0,1,-1.2121212121212466,4.18868358779477)"><svg viewBox="0 0 396 69" data-background-color="#f9f7f4" preserveAspectRatio="xMidYMid meet" height="348" width="2000" xmlns="http://www.w3.org/2000/svg" xmlns:xlink="http://www.w3.org/1999/xlink"><g id="tight-bounds" transform="matrix(1,0,0,1,0.2400000000000091,0.18933096310649944)"><svg viewBox="0 0 395.52 68.62133807378699" height="68.62133807378699" width="395.52"><g><svg viewBox="0 0 502.9570917733878 87.26129811688499" height="68.62133807378699" width="395.52"><g><rect width="3.2354562959398754" height="75.76957868325758" x="403.98978087942373" y="5.745859716813705" fill="#ff5a00" opacity="1" stroke-width="0" stroke="transparent" fill-opacity="1" class="rect-yte-0" data-fill-palette-color="primary" rx="1%" id="yte-0" data-palette-color="#ff5a00"></rect></g><g transform="matrix(1,0,0,1,0,12.059991273751837)"><svg viewBox="0 0 395.52 63.14131556938131" height="63.14131556938131" width="395.52"><g id="textblocktransform"><svg viewBox="0 0 395.52 63.14131556938131" height="63.14131556938131" width="395.52" id="textblock"><g><svg viewBox="0 0 395.52 35.87734830911976" height="35.87734830911976" width="395.52"><g transform="matrix(1,0,0,1,0,0)"><svg width="395.52" viewBox="4.15 -36.5 409.51000000000005 37.15" height="35.87734830911976" data-palette-color="#ff5a00"><path d="M23.2-3.6Q23.6-3.4 23.83-2.83 24.05-2.25 24.05-1.6L24.05-1.6Q24.05-0.9 23.8-0.45 23.55 0 23.05 0L23.05 0 7.15 0Q6.1 0 5.48-0.6 4.85-1.2 4.85-2.25L4.85-2.25 4.8-28.45Q4.8-31.7 4.15-33.6L4.15-33.6Q4.85-34.2 5.58-34.43 6.3-34.65 7.6-34.65L7.6-34.65 22.7-34.65Q23.05-34.65 23.25-34.33 23.45-34 23.45-33.5L23.45-33.5Q23.45-32.8 23.13-32.05 22.8-31.3 22.3-31.1L22.3-31.1Q15.15-32.35 8.8-32.4L8.8-32.4 8.8-19.4 21.1-19.4Q21.25-18.8 21.25-18.2L21.25-18.2Q21.25-17.6 21.1-17L21.1-17 8.85-17 8.85-2.2Q15.1-2.25 23.2-3.6L23.2-3.6ZM29.25-14.15L44.35-14.15 44.35-11.55 29.25-11.55 29.25-14.15ZM76-5.7Q76-2.05 76.65-0.35L76.65-0.35Q75.59 0.55 74.3 0.55L74.3 0.55Q73.3 0.55 72.65-0.05 72-0.65 72-1.65L72-1.65 71.95-17.1 55.65-17.1 55.65-5.7Q55.65-2.05 56.3-0.35L56.3-0.35Q55.25 0.55 53.95 0.55L53.95 0.55Q52.95 0.55 52.3-0.05 51.65-0.65 51.65-1.65L51.65-1.65 51.59-28.85Q51.59-32.3 50.95-34.2L50.95-34.2Q52-35.1 53.3-35.1L53.3-35.1Q54.34-35.1 55-34.52 55.65-33.95 55.65-32.9L55.65-32.9 55.65-19.5 71.95-19.5 71.95-28.85Q71.95-32.3 71.3-34.2L71.3-34.2Q72.34-35.1 73.65-35.1L73.65-35.1Q74.7-35.1 75.34-34.52 76-33.95 76-32.9L76-32.9 76-5.7ZM103.14-6.45Q103.89-6.2 103.89-5.3L103.89-5.3Q103.89-4.8 103.59-3.95L103.59-3.95Q102.64-1.75 100.27-0.55 97.89 0.65 94.69 0.65L94.69 0.65Q89.19 0.65 86.09-2.78 82.99-6.2 82.99-12.55L82.99-12.55Q82.99-18.85 86.07-22.45 89.14-26.05 94.89-26.05L94.89-26.05Q99.04-26.05 101.54-24.18 104.04-22.3 104.04-18.85L104.04-18.85Q104.04-15.15 101.04-13.2 98.04-11.25 92.69-11.25L92.69-11.25Q89.74-11.25 87.29-11.6L87.29-11.6Q87.59-6.55 89.82-4.33 92.04-2.1 95.64-2.1L95.64-2.1Q98.39-2.1 100.39-3.23 102.39-4.35 103.14-6.45L103.14-6.45ZM94.74-24.25Q91.34-24.25 89.32-21.43 87.29-18.6 87.24-13.3L87.24-13.3Q89.64-13.1 91.14-13.05L91.14-13.05Q95.14-13.05 97.47-14.48 99.79-15.9 99.79-19.35L99.79-19.35Q99.79-22 98.34-23.13 96.89-24.25 94.74-24.25L94.74-24.25ZM132.79-3.65Q133.34-2.9 133.34-2.1L133.34-2.1Q133.34-1 132.31-0.25 131.29 0.5 129.84 0.5L129.84 0.5Q127.69 0.5 126.59-1 125.49-2.5 125.49-5.7L125.49-5.7 125.49-7.15Q123.84-3.6 121.02-1.53 118.19 0.55 114.84 0.55L114.84 0.55Q111.94 0.55 110.27-1.03 108.59-2.6 108.59-5.25L108.59-5.25Q108.59-8.2 110.84-10.25 113.09-12.3 116.89-13.35L116.89-13.35Q120.24-14.25 123.84-14.25L123.84-14.25Q124.84-14.25 125.29-14.2L125.29-14.2 125.29-15.5Q125.29-19.95 123.81-22.1 122.34-24.25 118.94-24.25L118.94-24.25Q116.74-24.25 115.24-23.3 113.74-22.35 113.74-20.2L113.74-20.2Q113.74-19.05 114.27-18.05 114.79-17.05 115.89-16.65L115.89-16.65Q115.09-15.65 113.49-15.65L113.49-15.65Q111.84-15.65 110.79-16.98 109.74-18.3 109.74-20.05L109.74-20.05Q109.74-22.95 112.29-24.5 114.84-26.05 119.29-26.05L119.29-26.05Q124.44-26.05 126.89-23.4 129.34-20.75 129.34-15.25L129.34-15.25 129.34-5.25Q129.34-2.6 131.14-2.6L131.14-2.6Q131.54-2.6 132.04-2.88 132.54-3.15 132.79-3.65L132.79-3.65ZM116.44-2.25Q118.44-2.25 120.52-3.73 122.59-5.2 123.97-7.6 125.34-10 125.39-12.6L125.39-12.6 124.24-12.65Q122.49-12.65 120.69-12.38 118.89-12.1 117.64-11.6L117.64-11.6Q115.44-10.8 114.19-9.4 112.94-8 112.94-6.1L112.94-6.1Q112.94-4.45 113.79-3.35 114.64-2.25 116.44-2.25L116.44-2.25ZM142.59 0.5Q140.34 0.5 139.09-0.95 137.84-2.4 137.84-5.05L137.84-5.05 137.84-34.3Q137.84-35.35 138.49-35.93 139.14-36.5 140.19-36.5L140.19-36.5Q141.44-36.5 142.49-35.6L142.49-35.6Q142.09-34.3 141.96-32.25 141.84-30.2 141.84-25.85L141.84-25.85 141.84-5.25Q141.84-3.95 142.31-3.28 142.79-2.6 143.74-2.6L143.74-2.6Q144.29-2.6 144.81-2.88 145.34-3.15 145.59-3.65L145.59-3.65Q146.14-2.9 146.14-2.1L146.14-2.1Q146.14-0.95 145.11-0.23 144.09 0.5 142.59 0.5L142.59 0.5ZM158.14-25.35Q158.94-25.35 160.26-25.4 161.59-25.45 162.39-25.5L162.39-25.5 162.34-24.4Q162.28-23.9 161.99-23.58 161.69-23.25 161.24-23.25L161.24-23.25 156.09-23.25 156.09-21.35 156.09-5.25Q156.09-3.95 156.69-3.25 157.28-2.55 158.49-2.55L158.49-2.55Q159.24-2.55 159.91-2.83 160.59-3.1 160.84-3.6L160.84-3.6Q161.39-2.85 161.39-2L161.39-2Q161.39-0.85 160.19-0.15 158.99 0.55 157.14 0.55L157.14 0.55Q154.78 0.55 153.44-0.93 152.09-2.4 152.09-5L152.09-5 152.09-23.25 151.39-23.25Q149.34-23.25 148.39-23.1L148.39-23.1 148.44-24.25Q148.49-25.35 149.53-25.35L149.53-25.35 152.09-25.35 152.09-29.8Q152.09-30.85 152.74-31.43 153.39-32 154.44-32L154.44-32Q155.69-32 156.74-31.1L156.74-31.1Q156.19-29.4 156.14-25.35L156.14-25.35 158.14-25.35ZM188.58-5.7Q188.58-2.1 189.18-0.35L189.18-0.35Q188.18 0.55 186.88 0.55L186.88 0.55Q185.88 0.55 185.26-0.05 184.63-0.65 184.63-1.65L184.63-1.65 184.58-15.15Q184.58-19.55 183.41-21.7 182.23-23.85 179.38-23.85L179.38-23.85Q177.63-23.85 176.01-22.63 174.38-21.4 173.36-18.75 172.33-16.1 172.33-12.05L172.33-12.05Q172.33-5.6 172.43-3.65 172.53-1.7 173.03-0.35L173.03-0.35Q171.98 0.55 170.73 0.55L170.73 0.55Q169.68 0.55 169.06-0.1 168.43-0.75 168.43-1.85L168.43-1.85 168.38-34.3Q168.38-35.4 168.98-35.95 169.58-36.5 170.63-36.5L170.63-36.5Q171.38-36.5 172.03-36.23 172.68-35.95 173.03-35.6L173.03-35.6Q172.63-34.35 172.51-32.63 172.38-30.9 172.33-27.8L172.33-27.8 172.28-20.25Q173.38-23 175.53-24.53 177.68-26.05 180.53-26.05L180.53-26.05Q184.63-26.05 186.58-23.43 188.53-20.8 188.53-15.65L188.53-15.65 188.58-5.7ZM208.58 0.65Q202.28 0.65 198.81-4 195.33-8.65 195.33-17.3L195.33-17.3Q195.33-26 198.88-30.65 202.43-35.3 208.83-35.3L208.83-35.3Q211.48-35.3 213.75-34.63 216.03-33.95 217.41-32.77 218.78-31.6 218.78-30.25L218.78-30.25Q218.78-29.3 217.88-28.6 216.98-27.9 215.53-28.05L215.53-28.05Q215.13-30.65 213.41-32.05 211.68-33.45 208.88-33.45L208.88-33.45Q204.38-33.45 202.08-29.38 199.78-25.3 199.78-17.3L199.78-17.3Q199.78-9.35 202.08-5.28 204.38-1.2 208.78-1.2L208.78-1.2Q211.58-1.2 213.68-2.9 215.78-4.6 216.38-7.65L216.38-7.65 216.98-7.7Q218.13-7.7 218.93-7.18 219.73-6.65 219.73-5.65L219.73-5.65Q219.73-4 218.16-2.55 216.58-1.1 214-0.23 211.43 0.65 208.58 0.65L208.58 0.65ZM248.63-3.65Q249.18-2.9 249.18-2.1L249.18-2.1Q249.18-1 248.15-0.25 247.13 0.5 245.68 0.5L245.68 0.5Q243.53 0.5 242.43-1 241.33-2.5 241.33-5.7L241.33-5.7 241.33-7.15Q239.68-3.6 236.85-1.53 234.03 0.55 230.68 0.55L230.68 0.55Q227.78 0.55 226.1-1.03 224.43-2.6 224.43-5.25L224.43-5.25Q224.43-8.2 226.68-10.25 228.93-12.3 232.73-13.35L232.73-13.35Q236.08-14.25 239.68-14.25L239.68-14.25Q240.68-14.25 241.13-14.2L241.13-14.2 241.13-15.5Q241.13-19.95 239.65-22.1 238.18-24.25 234.78-24.25L234.78-24.25Q232.58-24.25 231.08-23.3 229.58-22.35 229.58-20.2L229.58-20.2Q229.58-19.05 230.1-18.05 230.63-17.05 231.73-16.65L231.73-16.65Q230.93-15.65 229.33-15.65L229.33-15.65Q227.68-15.65 226.63-16.98 225.58-18.3 225.58-20.05L225.58-20.05Q225.58-22.95 228.13-24.5 230.68-26.05 235.13-26.05L235.13-26.05Q240.28-26.05 242.73-23.4 245.18-20.75 245.18-15.25L245.18-15.25 245.18-5.25Q245.18-2.6 246.98-2.6L246.98-2.6Q247.38-2.6 247.88-2.88 248.38-3.15 248.63-3.65L248.63-3.65ZM232.28-2.25Q234.28-2.25 236.35-3.73 238.43-5.2 239.8-7.6 241.18-10 241.23-12.6L241.23-12.6 240.08-12.65Q238.33-12.65 236.53-12.38 234.73-12.1 233.48-11.6L233.48-11.6Q231.28-10.8 230.03-9.4 228.78-8 228.78-6.1L228.78-6.1Q228.78-4.45 229.63-3.35 230.48-2.25 232.28-2.25L232.28-2.25ZM264.48-26.05Q267.07-26.05 268.65-24.68 270.23-23.3 270.23-20.85L270.23-20.85Q270.23-19.2 269.28-18.13 268.32-17.05 267.03-17.05L267.03-17.05Q265.93-17.05 265.53-17.55L265.53-17.55Q266.07-18.4 266.28-19.13 266.48-19.85 266.48-20.75L266.48-20.75Q266.48-23.85 263.57-23.85L263.57-23.85Q261.32-23.85 259.8-20.98 258.28-18.1 258.28-12.05L258.28-12.05 258.28-9.35Q258.28-4.85 258.38-3.25 258.48-1.65 258.93-0.45L258.93-0.45Q257.88 0.45 256.57 0.45L256.57 0.45Q255.58 0.45 254.93-0.18 254.28-0.8 254.28-1.9L254.28-1.9 254.28-20.3Q254.28-21.7 253.95-22.3 253.63-22.9 252.88-22.9L252.88-22.9Q251.93-22.9 251.58-22.1L251.58-22.1Q250.98-22.95 250.98-23.7L250.98-23.7Q250.98-24.75 251.78-25.38 252.58-26 253.98-26L253.98-26Q255.93-26 256.9-24.63 257.88-23.25 257.82-20.55L257.82-20.55 257.82-20.3Q258.68-23.15 260.38-24.6 262.07-26.05 264.48-26.05L264.48-26.05ZM294.07-6.45Q294.82-6.2 294.82-5.3L294.82-5.3Q294.82-4.8 294.52-3.95L294.52-3.95Q293.57-1.75 291.2-0.55 288.82 0.65 285.62 0.65L285.62 0.65Q280.12 0.65 277.02-2.78 273.92-6.2 273.92-12.55L273.92-12.55Q273.92-18.85 277-22.45 280.07-26.05 285.82-26.05L285.82-26.05Q289.97-26.05 292.47-24.18 294.97-22.3 294.97-18.85L294.97-18.85Q294.97-15.15 291.97-13.2 288.97-11.25 283.62-11.25L283.62-11.25Q280.67-11.25 278.22-11.6L278.22-11.6Q278.52-6.55 280.75-4.33 282.97-2.1 286.57-2.1L286.57-2.1Q289.32-2.1 291.32-3.23 293.32-4.35 294.07-6.45L294.07-6.45ZM285.67-24.25Q282.27-24.25 280.25-21.43 278.22-18.6 278.17-13.3L278.17-13.3Q280.57-13.1 282.07-13.05L282.07-13.05Q286.07-13.05 288.4-14.48 290.72-15.9 290.72-19.35L290.72-19.35Q290.72-22 289.27-23.13 287.82-24.25 285.67-24.25L285.67-24.25ZM308.47-35.3Q315.82-35.3 319.32-32.83 322.82-30.35 322.82-25.1L322.82-25.1Q322.82-13.8 307.52-13.8L307.52-13.8 306.12-13.8 306.12-5.55Q306.12-4.35 306.27-2.8 306.42-1.25 306.77-0.35L306.77-0.35Q306.42 0 305.82 0.28 305.22 0.55 304.47 0.55L304.47 0.55Q303.42 0.55 302.77-0.05 302.12-0.65 302.07-1.65L302.07-1.65 302.07-28.85Q302.07-30.05 301.92-31.63 301.77-33.2 301.42-34.2L301.42-34.2Q303.52-35.3 308.47-35.3L308.47-35.3ZM307.62-15.6Q313.22-15.6 315.82-17.9 318.42-20.2 318.42-24.85L318.42-24.85Q318.42-29.2 316.02-31.33 313.62-33.45 308.32-33.45L308.32-33.45Q306.57-33.45 306.12-33.35L306.12-33.35 306.12-15.6 307.62-15.6ZM351.67-3.35Q352.27-2.55 352.27-1.8L352.27-1.8Q352.27-0.75 351.47-0.13 350.67 0.5 349.27 0.5L349.27 0.5Q345.37 0.5 345.37-4.6L345.37-4.6 345.37-5.6Q344.32-2.65 342.12-1 339.92 0.65 336.97 0.65L336.97 0.65Q332.87 0.65 331.02-1.75 329.17-4.15 329.12-9.85L329.12-9.85 329.12-19.75Q329.12-23.2 328.47-25.15L328.47-25.15Q329.57-26.05 330.82-26.05L330.82-26.05Q331.82-26.05 332.44-25.45 333.07-24.85 333.07-23.8L333.07-23.8 333.12-10.35Q333.12-7.1 333.59-5.2 334.07-3.3 335.14-2.43 336.22-1.55 338.12-1.55L338.12-1.55Q339.82-1.55 341.39-2.78 342.97-4 343.99-6.68 345.02-9.35 345.02-13.45L345.02-13.45Q345.02-19.9 344.92-21.85 344.82-23.8 344.32-25.15L344.32-25.15Q345.37-26.05 346.62-26.05L346.62-26.05Q347.62-26.05 348.27-25.4 348.92-24.75 348.92-23.65L348.92-23.65 348.97-5.15Q348.97-3.75 349.29-3.18 349.62-2.6 350.37-2.6L350.37-2.6Q351.27-2.6 351.67-3.35L351.67-3.35ZM362.27 0.5Q360.02 0.5 358.77-0.95 357.52-2.4 357.52-5.05L357.52-5.05 357.52-34.3Q357.52-35.35 358.17-35.93 358.82-36.5 359.87-36.5L359.87-36.5Q361.12-36.5 362.17-35.6L362.17-35.6Q361.77-34.3 361.64-32.25 361.52-30.2 361.52-25.85L361.52-25.85 361.52-5.25Q361.52-3.95 361.99-3.28 362.47-2.6 363.42-2.6L363.42-2.6Q363.97-2.6 364.49-2.88 365.02-3.15 365.27-3.65L365.27-3.65Q365.82-2.9 365.82-2.1L365.82-2.1Q365.82-0.95 364.79-0.23 363.77 0.5 362.27 0.5L362.27 0.5ZM378.21 0.65Q373.56 0.65 371.24-1.03 368.91-2.7 368.91-5.4L368.91-5.4Q368.91-6.65 369.51-7.43 370.11-8.2 371.41-8.2L371.41-8.2Q371.91-8.2 372.21-8.15L372.21-8.15Q372.06-7.55 372.06-6.95L372.06-6.95Q372.06-6.4 372.11-6.05L372.11-6.05Q372.21-3.85 373.94-2.55 375.66-1.25 378.56-1.25L378.56-1.25Q381.41-1.25 383.11-2.25 384.81-3.25 384.81-5.2L384.81-5.2Q384.81-7 383.51-8.05 382.21-9.1 379.41-10.35L379.41-10.35 377.81-11.1Q375.01-12.4 373.54-13.3 372.06-14.2 370.99-15.75 369.91-17.3 369.91-19.65L369.91-19.65Q369.91-22.9 372.46-24.5 375.01-26.1 378.91-26.1L378.91-26.1Q383.01-26.1 385.31-24.78 387.61-23.45 387.61-21.1L387.61-21.1Q387.61-19 385.76-18.8L385.76-18.8Q385.26-18.7 385.11-18.7L385.11-18.7Q384.81-18.7 384.31-18.8L384.31-18.8Q384.41-19.4 384.41-19.8L384.41-19.8Q384.41-20.45 384.26-20.9L384.26-20.9Q384.06-22.55 382.64-23.4 381.21-24.25 378.76-24.25L378.76-24.25Q376.51-24.25 375.06-23.43 373.61-22.6 373.61-20.8L373.61-20.8Q373.61-19.3 374.46-18.23 375.31-17.15 376.49-16.48 377.66-15.8 380.06-14.65L380.06-14.65 381.16-14.15Q383.61-13 385.09-12.13 386.56-11.25 387.59-9.85 388.61-8.45 388.61-6.5L388.61-6.5Q388.61-3.55 386.16-1.45 383.71 0.65 378.21 0.65L378.21 0.65ZM412.76-6.45Q413.51-6.2 413.51-5.3L413.51-5.3Q413.51-4.8 413.21-3.95L413.21-3.95Q412.26-1.75 409.89-0.55 407.51 0.65 404.31 0.65L404.31 0.65Q398.81 0.65 395.71-2.78 392.61-6.2 392.61-12.55L392.61-12.55Q392.61-18.85 395.69-22.45 398.76-26.05 404.51-26.05L404.51-26.05Q408.66-26.05 411.16-24.18 413.66-22.3 413.66-18.85L413.66-18.85Q413.66-15.15 410.66-13.2 407.66-11.25 402.31-11.25L402.31-11.25Q399.36-11.25 396.91-11.6L396.91-11.6Q397.21-6.55 399.44-4.33 401.66-2.1 405.26-2.1L405.26-2.1Q408.01-2.1 410.01-3.23 412.01-4.35 412.76-6.45L412.76-6.45ZM404.36-24.25Q400.96-24.25 398.94-21.43 396.91-18.6 396.86-13.3L396.86-13.3Q399.26-13.1 400.76-13.05L400.76-13.05Q404.76-13.05 407.09-14.48 409.41-15.9 409.41-19.35L409.41-19.35Q409.41-22 407.96-23.13 406.51-24.25 404.36-24.25L404.36-24.25Z" opacity="1" transform="matrix(1,0,0,1,0,0)" fill="#ff5a00" class="wordmark-text-0" data-fill-palette-color="primary" id="text-0"></path></svg></g></svg></g><g transform="matrix(1,0,0,1,163.310208,44.34712918854352)"><svg viewBox="0 0 232.209792 18.794186380837797" height="18.794186380837797" width="232.209792"><g transform="matrix(1,0,0,1,0,0)"><svg width="232.209792" viewBox="0.6 -36.4 457.10999999999996 37" height="18.794186380837797" data-palette-color="#ff5a00"><path d="M22.75-29.25L22.25-29.25 21.35-24.95 14.2 0 9.6 0 0.6-35 5.5-35 5.95-32.1 11.3-9.6 11.8-5.1 12.3-5.1 12.9-9.6 20.1-34.5 24.8-34.5 32.05-9.6 32.65-5.1 33.15-5.1 33.65-9.6 38.95-32.1 39.4-35 44.3-35 35.35 0 30.75 0 23.6-24.95 22.75-29.25ZM47.6-12.8L47.6-12.8Q47.6-17.75 49.22-20.68 50.85-23.6 53.5-24.85 56.15-26.1 59.15-26.1L59.15-26.1Q62.6-26.1 64.92-24.73 67.25-23.35 68.42-20.83 69.6-18.3 69.6-14.8L69.6-14.8Q69.6-13.8 69.5-12.95 69.4-12.1 69.25-11.35L69.25-11.35 49.8-11.35 49.8-12.25 54.3-14.75 65.35-14.75Q65.35-17 64.87-18.75 64.4-20.5 63.05-21.5 61.7-22.5 59.1-22.5L59.1-22.5Q56.4-22.5 54.82-21.33 53.25-20.15 52.57-18.05 51.9-15.95 51.9-13.15L51.9-13.15Q51.9-9.8 52.65-7.75 53.4-5.7 54.65-4.7 55.9-3.7 57.4-3.35 58.9-3 60.4-3L60.4-3Q62.75-3 64.47-3.48 66.2-3.95 67.55-4.75L67.55-4.75 68.35-4.25 68.35-0.65Q66.8-0.1 64.92 0.25 63.05 0.6 60.85 0.6L60.85 0.6Q58.45 0.6 56.07 0.03 53.7-0.55 51.8-2 49.9-3.45 48.75-6.08 47.6-8.7 47.6-12.8ZM94.79 0L89.54 0 90.04-4 90.04-31 89.54-35 100.59-35Q104.29-35 106.89-33.5 109.49-32 110.87-29.55 112.24-27.1 112.24-24.2L112.24-24.2Q112.24-22.3 111.59-20.4 110.94-18.5 109.57-16.95 108.19-15.4 105.97-14.48 103.74-13.55 100.59-13.55L100.59-13.55 94.29-13.55 94.29-4 94.79 0ZM94.29-31.3L94.29-17.25 100.39-17.25Q104.24-17.25 105.99-19.2 107.74-21.15 107.74-24.2L107.74-24.2Q107.74-27.35 105.92-29.33 104.09-31.3 100.39-31.3L100.39-31.3 94.29-31.3ZM123.89 0L118.69 0 119.19-4 119.19-21.5 118.69-25.5 122.04-25.5 122.84-22.55 123.39-22.55 123.39-4 123.89 0ZM122.34-16.45L122.34-16.45 122.34-21.7 126.74-25.45Q128.54-26.1 130.44-26.1L130.44-26.1Q131.29-26.1 132.19-25.98 133.09-25.85 134.04-25.45L134.04-25.45 134.04-22.1 133.24-21.6Q132.39-21.9 131.62-22 130.84-22.1 130.19-22.1L130.19-22.1Q127.24-22.1 125.39-20.58 123.54-19.05 122.34-16.45ZM144.64-29.7L144.64-29.7Q143.44-29.7 142.59-30.48 141.74-31.25 141.74-32.6L141.74-32.6Q141.74-33.95 142.59-34.73 143.44-35.5 144.64-35.5L144.64-35.5Q145.84-35.5 146.69-34.73 147.54-33.95 147.54-32.6L147.54-32.6Q147.54-31.25 146.69-30.48 145.84-29.7 144.64-29.7ZM148.04 0L142.84 0 143.34-4 143.34-22.1 138.14-22.1 138.14-25.5 148.04-25.5 147.54-21.5 147.54-4 148.04 0ZM166.99 0.6L166.99 0.6Q163.99 0.6 161.24-0.7 158.49-2 156.76-4.95 155.03-7.9 155.03-12.75L155.03-12.75Q155.03-16.45 156.03-19 157.03-21.55 158.74-23.13 160.44-24.7 162.59-25.4 164.74-26.1 166.99-26.1L166.99-26.1Q169.24-26.1 171.39-25.4 173.54-24.7 175.24-23.13 176.94-21.55 177.94-19 178.94-16.45 178.94-12.75L178.94-12.75Q178.94-7.9 177.21-4.95 175.49-2 172.76-0.7 170.03 0.6 166.99 0.6ZM166.99-3L166.99-3Q170.53-3 172.59-5.2 174.64-7.4 174.64-12.85L174.64-12.85Q174.64-16.5 173.71-18.6 172.79-20.7 171.09-21.6 169.39-22.5 166.99-22.5L166.99-22.5Q164.59-22.5 162.89-21.6 161.19-20.7 160.26-18.6 159.34-16.5 159.34-12.85L159.34-12.85Q159.34-7.4 161.39-5.2 163.44-3 166.99-3ZM190.63 0L185.43 0 185.93-4 185.93-21.5 185.43-25.5 188.78-25.5 189.58-22.55 190.13-22.55 190.13-4 190.63 0ZM189.08-16.45L189.08-16.45 189.08-21.7 193.48-25.45Q195.28-26.1 197.18-26.1L197.18-26.1Q198.03-26.1 198.93-25.98 199.83-25.85 200.78-25.45L200.78-25.45 200.78-22.1 199.98-21.6Q199.13-21.9 198.36-22 197.58-22.1 196.93-22.1L196.93-22.1Q193.98-22.1 192.13-20.58 190.28-19.05 189.08-16.45ZM208.18-7.15L208.18-7.15 208.18-29.1 207.93-32.6 212.63-32.6 212.38-29.1 212.38-7.25Q212.38-4.85 213.46-3.93 214.53-3 216.63-3L216.63-3Q217.63-3 218.36-3.2 219.08-3.4 219.73-3.75L219.73-3.75 220.53-3.25 220.53-0.15Q219.43 0.25 218.31 0.43 217.18 0.6 216.13 0.6L216.13 0.6Q214.13 0.6 212.31-0.08 210.48-0.75 209.33-2.43 208.18-4.1 208.18-7.15ZM206.38-22L203.88-21.75 203.88-25.5 207.08-25.5 210.28-24 213.48-25.5 220.03-25.5 220.03-21.75 217.53-22 206.38-22ZM231.43-29.7L231.43-29.7Q230.23-29.7 229.38-30.48 228.53-31.25 228.53-32.6L228.53-32.6Q228.53-33.95 229.38-34.73 230.23-35.5 231.43-35.5L231.43-35.5Q232.63-35.5 233.48-34.73 234.33-33.95 234.33-32.6L234.33-32.6Q234.33-31.25 233.48-30.48 232.63-29.7 231.43-29.7ZM234.83 0L229.63 0 230.13-4 230.13-22.1 224.93-22.1 224.93-25.5 234.83-25.5 234.33-21.5 234.33-4 234.83 0ZM259.43-24.9L259.43-24.9 259.43-21.1 258.63-20.6Q257.23-21.5 255.53-22 253.83-22.5 251.63-22.5L251.63-22.5Q250.13-22.5 248.9-22.23 247.68-21.95 246.95-21.28 246.23-20.6 246.23-19.4L246.23-19.4Q246.23-17.95 247.28-17.1 248.33-16.25 250-15.65 251.68-15.05 253.53-14.45 255.38-13.85 257.05-12.95 258.73-12.05 259.78-10.55 260.83-9.05 260.83-6.65L260.83-6.65Q260.83-3.8 259.35-2.23 257.88-0.65 255.48-0.03 253.08 0.6 250.38 0.6L250.38 0.6Q247.63 0.6 245.53 0.15 243.43-0.3 241.93-0.8L241.93-0.8 241.93-4.5 242.73-5Q244.33-4.05 246.18-3.53 248.03-3 250.73-3L250.73-3Q252.28-3 253.63-3.25 254.98-3.5 255.85-4.25 256.73-5 256.73-6.45L256.73-6.45Q256.73-8.1 255.68-9.05 254.63-10 252.95-10.6 251.28-11.2 249.4-11.75 247.53-12.3 245.85-13.13 244.18-13.95 243.13-15.4 242.08-16.85 242.08-19.2L242.08-19.2Q242.08-21.35 242.95-22.7 243.83-24.05 245.3-24.8 246.78-25.55 248.55-25.83 250.33-26.1 252.13-26.1L252.13-26.1Q254.33-26.1 256.15-25.78 257.98-25.45 259.43-24.9ZM266.02-12.8L266.02-12.8Q266.02-17.75 267.65-20.68 269.27-23.6 271.92-24.85 274.57-26.1 277.57-26.1L277.57-26.1Q281.02-26.1 283.35-24.73 285.67-23.35 286.85-20.83 288.02-18.3 288.02-14.8L288.02-14.8Q288.02-13.8 287.92-12.95 287.82-12.1 287.67-11.35L287.67-11.35 268.22-11.35 268.22-12.25 272.72-14.75 283.77-14.75Q283.77-17 283.3-18.75 282.82-20.5 281.47-21.5 280.12-22.5 277.52-22.5L277.52-22.5Q274.82-22.5 273.25-21.33 271.67-20.15 271-18.05 270.32-15.95 270.32-13.15L270.32-13.15Q270.32-9.8 271.07-7.75 271.82-5.7 273.07-4.7 274.32-3.7 275.82-3.35 277.32-3 278.82-3L278.82-3Q281.17-3 282.9-3.48 284.62-3.95 285.97-4.75L285.97-4.75 286.77-4.25 286.77-0.65Q285.22-0.1 283.35 0.25 281.47 0.6 279.27 0.6L279.27 0.6Q276.87 0.6 274.5 0.03 272.12-0.55 270.22-2 268.32-3.45 267.17-6.08 266.02-8.7 266.02-12.8ZM336.97 0L331.72 0 332.22-4 332.22-31 331.72-35 336.97-35 336.47-31 336.47-4 336.97 0ZM313.22 0L307.97 0 308.47-4 308.47-31 307.97-35 313.22-35 312.72-31 312.72-4 313.22 0ZM335.02-16.35L309.87-16.35 309.87-20.25 335.02-20.25 335.02-16.35ZM344.17-12.8L344.17-12.8Q344.17-17.75 345.79-20.68 347.42-23.6 350.07-24.85 352.72-26.1 355.72-26.1L355.72-26.1Q359.17-26.1 361.49-24.73 363.82-23.35 364.99-20.83 366.17-18.3 366.17-14.8L366.17-14.8Q366.17-13.8 366.07-12.95 365.97-12.1 365.82-11.35L365.82-11.35 346.37-11.35 346.37-12.25 350.87-14.75 361.92-14.75Q361.92-17 361.44-18.75 360.97-20.5 359.62-21.5 358.27-22.5 355.67-22.5L355.67-22.5Q352.97-22.5 351.39-21.33 349.82-20.15 349.14-18.05 348.47-15.95 348.47-13.15L348.47-13.15Q348.47-9.8 349.22-7.75 349.97-5.7 351.22-4.7 352.47-3.7 353.97-3.35 355.47-3 356.97-3L356.97-3Q359.32-3 361.04-3.48 362.77-3.95 364.12-4.75L364.12-4.75 364.92-4.25 364.92-0.65Q363.37-0.1 361.49 0.25 359.62 0.6 357.42 0.6L357.42 0.6Q355.02 0.6 352.64 0.03 350.27-0.55 348.37-2 346.47-3.45 345.32-6.08 344.17-8.7 344.17-12.8ZM392.96 0L389.01 0 388.26-2.65 388.26-16.25Q388.26-18.25 387.71-19.63 387.16-21 385.56-21.75 383.96-22.5 380.81-22.5L380.81-22.5Q378.96-22.5 377.39-22.15 375.81-21.8 374.36-20.85L374.36-20.85 373.56-21.35 373.56-24.95Q375.76-25.65 377.69-25.88 379.61-26.1 381.26-26.1L381.26-26.1Q385.61-26.1 388.04-24.95 390.46-23.8 391.46-21.58 392.46-19.35 392.46-16.1L392.46-16.1 392.46-4 392.96 0ZM380.56 0.6L380.56 0.6Q378.36 0.6 376.21-0.13 374.06-0.85 372.64-2.63 371.21-4.4 371.21-7.5L371.21-7.5Q371.21-9.9 372.11-11.5 373.01-13.1 374.54-14 376.06-14.9 377.96-15.28 379.86-15.65 381.86-15.65L381.86-15.65Q383.06-15.65 384.09-15.55 385.11-15.45 386.11-15.2L386.11-15.2 388.71-13.35 388.71-11.05Q387.41-11.75 385.94-12.03 384.46-12.3 382.56-12.3L382.56-12.3Q379.06-12.3 377.24-11.28 375.41-10.25 375.41-7.45L375.41-7.45Q375.41-5.15 376.76-4.03 378.11-2.9 381.11-2.9L381.11-2.9Q384.21-2.9 386.04-3.9 387.86-4.9 388.86-6.3L388.86-6.3 389.86-4.05 385.06 0Q384.06 0.25 382.91 0.43 381.76 0.6 380.56 0.6ZM408.16-3.95L408.96-3.45 408.96 0Q408.46 0.25 407.81 0.43 407.16 0.6 406.11 0.6L406.11 0.6Q404.61 0.6 403.24 0.13 401.86-0.35 400.96-1.7 400.06-3.05 400.06-5.6L400.06-5.6 400.06-32.4 399.56-36.4 404.76-36.4 404.26-32.4 404.26-5.65Q404.26-4.55 404.79-3.98 405.31-3.4 406.46-3.4L406.46-3.4Q407.01-3.4 407.41-3.55 407.81-3.7 408.16-3.95L408.16-3.95ZM416.76-7.15L416.76-7.15 416.76-29.1 416.51-32.6 421.21-32.6 420.96-29.1 420.96-7.25Q420.96-4.85 422.03-3.93 423.11-3 425.21-3L425.21-3Q426.21-3 426.93-3.2 427.66-3.4 428.31-3.75L428.31-3.75 429.11-3.25 429.11-0.15Q428.01 0.25 426.88 0.43 425.76 0.6 424.71 0.6L424.71 0.6Q422.71 0.6 420.88-0.08 419.06-0.75 417.91-2.43 416.76-4.1 416.76-7.15ZM414.96-22L412.46-21.75 412.46-25.5 415.66-25.5 418.86-24 422.06-25.5 428.61-25.5 428.61-21.75 426.11-22 414.96-22ZM457.71 0L452.51 0 453.01-4 453.01-16.55Q453.01-19.45 451.43-20.88 449.86-22.3 446.76-22.3L446.76-22.3Q444.36-22.3 442.61-21.58 440.86-20.85 439.71-19.9 438.56-18.95 437.91-18.2L437.91-18.2 437.91-21.35 443.31-25.6Q444.61-25.9 445.68-26 446.76-26.1 447.66-26.1L447.66-26.1Q451.26-26.1 453.33-24.95 455.41-23.8 456.31-21.73 457.21-19.65 457.21-16.95L457.21-16.95 457.21-4 457.71 0ZM440.01 0L434.81 0 435.31-4 435.31-32.4 434.81-36.4 440.01-36.4 439.51-32.4 439.51-4 440.01 0Z" opacity="1" transform="matrix(1,0,0,1,0,0)" fill="#ff5a00" class="slogan-text-1" data-fill-palette-color="secondary" id="text-1"></path></svg></g></svg></g></svg></g></svg></g><g transform="matrix(1,0,0,1,415.69501805478734,0)"><svg viewBox="0 0 87.26207371860038 87.26129811688499" height="87.26129811688499" width="87.26207371860038"><g><svg xmlns="http://www.w3.org/2000/svg" xmlns:xlink="http://www.w3.org/1999/xlink" version="1.1" x="0" y="0" viewBox="0 -7.009014912053304e-8 100 99.99911118120126" enable-background="new 0 0 100 100" xml:space="preserve" id="icon-0" width="87.26207371860038" height="87.26129811688499" class="icon-icon-0" data-fill-palette-color="accent"><path d="M69.089 6.549C65.931 3.961 63.737 4.57 60.573 10.211 58.483 13.941 55.156 14.391 53.118 14.277L53.132 13.531C55.495 12.356 57.161 9.973 57.161 7.164A7.16 7.16 0 0 0 50 0C46.048 0 42.826 3.2 42.826 7.165 42.826 9.974 44.493 12.357 46.862 13.526L46.869 14.278C44.838 14.392 41.504 13.943 39.414 10.212 36.263 4.571 34.062 3.962 30.912 6.55 27.741 9.141 15.241 24.079 0 22.708 0 22.708 3.021 29.567 11.256 28.047 11.256 28.047 15.657 32.614 22.799 29.417 22.799 29.417 26.51 32.764 32.415 29.72 32.415 29.72 36.803 33.073 41.484 30.176 41.484 30.176 44.127 32.09 47.064 31.595L47.252 48.841C46.92 48.776 46.653 48.698 46.302 48.636 46.289 48.63 41.185 47.536 35.787 46.022 30.592 44.661 24.889 42.454 24.049 41.305 24.121 41.233 24.238 41.178 24.388 41.106 24.85 40.862 25.638 40.611 26.576 40.419 28.483 40.031 31.068 39.833 33.666 39.729 38.829 39.543 39.76 39.768 39.851 39.785 39.858 39.622 42.839 40.137 43.66 37.099 43.628 37.073 43.719 36.949 43.667 36.877 43.498 34.787 41.89 34.683 40.574 34.439 38.439 34.159 39.552 34.27 36.675 34.306 31.948 34.658 17.384 33.479 15.549 41.145 15.549 41.36 15.536 41.497 15.51 41.686 16.122 48.362 29.944 51.259 39.957 53.255 36.559 55.582 34.742 58.609 34.019 62.523 33.674 66.696 36.988 70.668 44.683 75.107 38.836 79.248 34.995 83.134 35.308 87.829 35.855 91.657 39.234 96.774 45.874 99.997 45.894 100.004 45.9 99.99 45.913 99.997H45.933S41.285 92.907 40.972 89.027C40.666 86.761 41.955 83.415 47.606 79.384L47.769 93.564H47.795C47.834 94.769 48.765 95.732 49.937 95.732S52.04 94.769 52.079 93.564H52.099L52.287 79.755C57.495 83.616 58.674 86.825 58.374 89.026 58.062 92.906 53.42 99.996 53.42 99.996H53.433S53.447 100.003 53.479 99.996C60.113 96.773 63.499 91.656 64.039 87.828 64.351 83.134 60.511 79.247 54.671 75.106 62.359 70.667 65.68 66.695 65.335 62.522 64.612 58.609 62.796 55.582 59.391 53.254 69.411 51.258 83.226 48.361 83.838 41.685A3.5 3.5 0 0 1 83.799 41.144C81.969 33.478 67.399 34.657 62.672 34.305 59.795 34.269 60.908 34.159 58.773 34.438 57.458 34.682 55.85 34.786 55.68 36.876 55.628 36.948 55.726 37.071 55.694 37.098 56.514 40.135 59.496 39.62 59.503 39.784 59.587 39.767 60.519 39.543 65.688 39.728 68.279 39.832 70.864 40.031 72.771 40.418 73.715 40.61 74.49 40.86 74.959 41.105 75.109 41.177 75.232 41.232 75.305 41.304 74.465 42.453 68.762 44.66 63.567 46.021 58.163 47.535 53.059 48.628 53.046 48.635 52.916 48.661 52.812 48.687 52.682 48.71L52.904 31.591C55.859 32.109 58.522 30.175 58.522 30.175 63.19 33.072 67.591 29.719 67.591 29.719 73.495 32.763 77.2 29.416 77.2 29.416 84.342 32.613 88.743 28.046 88.743 28.046 96.973 29.567 100 22.708 100 22.708 84.753 24.079 72.253 9.141 69.089 6.549M43.268 67.711C41.361 66.526 40.469 64.925 40.644 63.844 40.748 62.34 40.227 58.753 47.343 56.142L47.506 70.387C46.133 69.521 44.713 68.629 43.268 67.711M58.698 63.844C58.874 64.925 57.981 66.527 56.074 67.711 54.824 68.512 53.6 69.273 52.402 70.028L52.585 56.363C59.075 58.961 58.594 62.386 58.698 63.844" fill="#ff5a00" data-fill-palette-color="accent"></path></svg></g></svg></g></svg></g><defs></defs></svg><rect width="395.52" height="68.62133807378699" fill="none" stroke="none" visibility="hidden"></rect></g></svg></g></svg>